<?xml version="1.0" standalone="no"?>
<!DOCTYPE svg PUBLIC "-//W3C//DTD SVG 1.1//EN" "http://www.w3.org/Graphics/SVG/1.1/DTD/svg11.dtd" >
<svg xmlns="http://www.w3.org/2000/svg">
<metadata>Generated by IcoMoon</metadata>
<defs>
<font id="tts-iconfont" horiz-adv-x="1024">
<font-face units-per-em="1024" ascent="512" descent="-512" />
<missing-glyph horiz-adv-x="1024" />
<glyph unicode="&#x20;" horiz-adv-x="512" d="" />
<glyph unicode="&#xe600;" glyph-name="list-bullet" d="M512-512.041c282.767 0 512 229.233 512 512.061 0 282.747-229.233 512-512 512s-512-229.253-512-512c0-282.829 229.233-512.061 512-512.061z" />
<glyph unicode="&#xe601;" glyph-name="editors" d="M0-139.756h1024v-54.252h-1024v54.252zM903.803 358.83c23.47 0 23.47-23.45 23.47-23.45v-468.541c0-23.47-23.47-23.47-23.47-23.47h-783.626c-23.45 0-23.45 23.47-23.45 23.47v468.541c0 23.45 23.45 23.45 23.45 23.45h783.626zM143.36-101.356h737.28v413.491h-737.28v-413.491zM500.982-12.104c-3.195 0-6.431 0.758-9.462 2.376-9.851 5.243-13.599 17.49-8.356 27.341l98.857 185.979c5.222 9.83 17.49 13.619 27.32 8.356 9.851-5.243 13.599-17.49 8.356-27.341l-98.857-185.979c-3.625-6.82-10.629-10.732-17.859-10.732zM492.237-12.083c-5.263 0-10.506 2.028-14.479 6.103l-68.096 69.816c-7.782 7.987-7.619 20.787 0.369 28.59 8.008 7.762 20.767 7.68 28.59-0.369l68.096-69.816c7.782-7.987 7.619-20.787-0.369-28.59-3.932-3.83-9.011-5.734-14.111-5.734z" />
<glyph unicode="&#xe602;" glyph-name="producer" d="M880.64 184.32h-40.96v286.72c0 22.61-18.35 40.96-40.94 40.96-22.63 0-40.98-18.35-40.98-40.96v-286.72h-40.96v-81.92h40.96v-40.96h-491.52v40.96h40.98v81.92h-40.98v286.72c0 22.61-18.35 40.96-40.98 40.96-22.589 0-40.94-18.35-40.94-40.96v-286.72h-40.96v-81.92h40.96v-122.88h655.36v122.88h40.96v81.92zM617.943-389.14h-211.845l105.902 105.943 105.943-105.943zM512-167.363l-134.881 134.84c-8.008 8.028-18.473 12.042-28.959 12.042-10.465 0-20.951-4.014-28.959-12.042-16.015-15.954-16.015-41.902 0-57.876l134.902-134.881-216.842-216.801c-15.974-15.974-15.974-41.902 0-57.917 8.008-8.028 18.473-12.001 28.979-12.001s20.972 3.973 28.979 12.001l69.898 69.919h293.765l69.919-69.919c8.008-8.028 18.473-12.001 28.959-12.001 10.506 0 20.972 3.973 28.979 12.001 15.995 16.015 15.995 41.943 0 57.917l-216.822 216.801 134.902 134.881c15.995 15.974 15.995 41.923 0 57.876-8.008 8.028-18.493 12.042-28.979 12.042s-20.951-4.014-28.959-12.042l-134.881-134.84zM307.22 471.040h409.58v-245.76h-409.58v245.76z" />
<glyph unicode="&#xe603;" glyph-name="social-facebook" d="M967.455 512h-910.93c-31.232 0-56.525-25.293-56.525-56.545v-910.93c0-31.232 25.293-56.525 56.525-56.525h490.414v396.534h-133.448v154.522h133.448v113.992c0 132.28 80.794 204.288 198.799 204.288 56.504 0 105.062-4.198 119.214-6.083v-138.22l-81.818-0.041c-64.184 0-76.595-30.495-76.595-75.264v-98.673h153.068l-19.948-154.522h-133.12v-396.534h260.915c31.252 0 56.545 25.293 56.545 56.545v910.909c0 31.252-25.293 56.545-56.545 56.545z" />
<glyph unicode="&#xe604;" glyph-name="social-google-plus" d="M438.825 260.792c-12.943 103.24-84.152 186.040-159.068 188.396s-125.215-76.636-112.271-179.876c12.943-103.096 84.193-188.641 159.109-190.996 74.895-2.335 125.174 79.34 112.23 182.477zM316.641-121.938c-111.596 1.229-211.681-71.393-211.681-158.638 0-89.006 80.65-163.041 192.307-163.041 156.938 0 211.661 69.53 211.661 158.474 0 10.711-1.29 21.258-3.564 31.437-12.268 50.401-55.726 75.366-116.408 119.542-21.975 7.455-46.326 11.94-72.315 12.227zM449.638 443.044c61.092-24.658 93.716-99.43 93.716-176.128 0-64.471-33.997-119.849-82.145-159.252-46.92-38.523-55.828-54.579-55.828-87.286 0-27.914 50.237-75.346 76.595-94.863 76.841-56.975 101.642-109.875 101.642-198.205 0-110.121-101.642-219.709-285.798-219.709-161.546 0.020-297.82 68.977-297.82 179.077 0 111.8 124.293 219.709 285.86 219.709 17.551 0 33.71 0.471 50.442 0.471-22.118 22.61-39.629 50.196-39.629 84.296 0 20.234 6.164 39.629 14.807 56.975-8.806-0.717-17.736-0.922-26.911-0.922-132.71 0-221.655 98.959-221.655 221.614 0 119.91 122.757 223.539 253.092 223.539h290.918l-65.106-49.336h-92.18zM1024 228.168h-151.695v-151.695h-75.837v151.695h-151.695v75.817h151.695v151.716h75.837v-151.716h151.695v-75.817z" />
<glyph unicode="&#xe605;" glyph-name="social-twitter" d="M1024 317.563c-37.622-16.732-78.172-27.996-120.648-33.075 43.356 26.030 76.677 67.133 92.365 116.224-40.591-24.064-85.545-41.513-133.366-50.995-38.359 40.837-92.938 66.396-153.395 66.396-116.019 0-210.084-94.106-210.084-210.125 0-16.466 1.864-32.461 5.448-47.862-174.592 8.745-329.38 92.385-433.050 219.464-18.022-31.007-28.406-67.092-28.406-105.636 0-72.888 37.069-137.175 93.43-174.797-34.406 1.065-66.806 10.527-95.13 26.235-0.041-0.881-0.041-1.741-0.041-2.642 0-101.827 72.417-186.716 168.55-206.029-17.633-4.772-36.209-7.332-55.378-7.332-13.537 0-26.706 1.29-39.547 3.748 26.747-83.476 104.346-144.22 196.26-145.879-71.885-56.32-162.468-89.989-260.915-89.989-16.937 0-33.69 1.024-50.094 2.99 92.979-59.617 203.428-94.351 322.089-94.351 386.437 0 597.75 320.082 597.75 597.709 0 9.134-0.266 18.207-0.655 27.177 41.062 29.614 76.698 66.621 104.817 108.769z" />
<glyph unicode="&#xe606;" glyph-name="vimeo" d="M1023.6 238c-4.6-99.6-74.2-236.2-208.8-409.4-139.2-180.8-257-271.4-353.4-271.4-59.6 0-110.2 55-151.4 165.2-27.6 101-55 202-82.6 303-30.6 110.2-63.4 165.2-98.6 165.2-7.6 0-34.4-16.2-80.4-48.2l-48.2 62c50.6 44.4 100.4 88.8 149.4 133.2 67.4 58.2 118 88.8 151.8 92 79.6 7.6 128.8-46.8 147.2-163.4 19.8-125.8 33.6-204 41.4-234.6 23-104.4 48.2-156.6 75.8-156.6 21.4 0 53.6 33.8 96.6 101.6 42.8 67.6 65.8 119.2 69 154.6 6.2 58.4-16.8 87.8-69 87.8-24.6 0-49.8-5.6-75.8-16.8 50.4 164.8 146.4 244.8 288.4 240.2 105-2.8 154.6-71 148.6-204.4z" />
<glyph unicode="&#xe607;" glyph-name="youtube" d="M1013.8 204.8c0 0-10 70.6-40.8 101.6-39 40.8-82.6 41-102.6 43.4-143.2 10.4-358.2 10.4-358.2 10.4h-0.4c0 0-215 0-358.2-10.4-20-2.4-63.6-2.6-102.6-43.4-30.8-31-40.6-101.6-40.6-101.6s-10.2-82.8-10.2-165.8v-77.6c0-82.8 10.2-165.8 10.2-165.8s10-70.6 40.6-101.6c39-40.8 90.2-39.4 113-43.8 82-7.8 348.2-10.2 348.2-10.2s215.2 0.4 358.4 10.6c20 2.4 63.6 2.6 102.6 43.4 30.8 31 40.8 101.6 40.8 101.6s10.2 82.8 10.2 165.8v77.6c-0.2 82.8-10.4 165.8-10.4 165.8zM406.2-132.8v287.8l276.6-144.4-276.6-143.4z" />
<glyph unicode="&#xe608;" glyph-name="tentaclesync-logo" d="M418.57-139.018v651.018h-46.244v-651.018c0-37.233-30.29-67.523-67.523-67.523s-67.564 30.29-67.564 67.523c0 37.212 30.31 67.502 67.564 67.502v46.244c-62.751 0-113.807-51.016-113.807-113.746s51.036-113.766 113.807-113.766c62.71 0 113.766 51.036 113.766 113.766zM643.523-246.108c-61.112 6.82-69.55 36.516-69.55 67.604v690.504h-46.244v-690.504c0-46.305 19.313-103.629 111.288-113.623l1.085-0.082c41.288-2.56 68.997-29.716 68.997-67.584 0-37.233-30.31-67.523-67.564-67.523v-46.244c62.751 0 113.807 51.036 113.807 113.766-0.020 61.706-47.022 109.425-111.821 113.684zM719.237 17.797v-46.223c37.233 0 67.523-30.29 67.523-67.523s-30.29-67.523-67.523-67.523v-0.020c-37.233 0-67.564 30.29-67.564 67.543v607.949h-46.244v-607.969c0-62.73 51.036-113.787 113.807-113.787v0.041c62.71 0 113.766 51.036 113.766 113.766s-51.036 113.746-113.766 113.746zM450.048-216.945c0-42.291-22.036-63.775-70.246-67.707-67.482-7.926-111.084-52.49-111.084-113.582 0-62.73 51.036-113.787 113.766-113.787v46.244c-37.233 0-67.523 30.29-67.523 67.543 0 37.192 26.235 62.505 69.407 67.584 71.127 5.755 111.923 47.206 111.923 113.705v728.945h-46.244v-728.945z" />
<glyph unicode="&#xe609;" glyph-name="audio-video-professionals" d="M0-40.96v-245.76h1024v245.76h-1024zM102.4-266.24h-61.44v20.48h61.44v-20.48zM102.4-81.92h-61.44v20.48h61.44v-20.48zM327.68-266.24h-61.44v20.48h61.44v-20.48zM327.68-81.92h-61.44v20.48h61.44v-20.48zM532.48-266.24h-61.44v20.48h61.44v-20.48zM532.48-81.92h-61.44v20.48h61.44v-20.48zM757.76-266.24h-61.44v20.48h61.44v-20.48zM757.76-81.92h-61.44v20.48h61.44v-20.48zM962.56-266.24h-61.44v20.48h61.44v-20.48zM962.56-81.92h-61.44v20.48h61.44v-20.48zM0 286.72v-245.76h1024v245.76h-1024zM81.92 143.36h-40.96v40.96h40.96v-40.96zM163.84 102.4h-40.96v122.88h40.96v-122.88zM245.76 122.88h-40.96v81.92h40.96v-81.92zM327.68 102.4h-40.96v122.88h40.96v-122.88zM409.6 61.44h-40.96v204.8h40.96v-204.8zM491.52 122.88h-40.96v81.92h40.96v-81.92zM573.44 81.92h-40.96v163.84h40.96v-163.84zM655.36 122.88h-40.96v81.92h40.96v-81.92zM737.28 102.4h-40.96v122.88h40.96v-122.88zM819.2 81.92h-40.96v163.84h40.96v-163.84zM901.12 122.88h-40.96v81.92h40.96v-81.92zM983.040 143.36h-40.96v40.96h40.96v-40.96z" />
<glyph unicode="&#xe60a;" glyph-name="list-line" d="M0 51.2h1024v-102.4h-1024v102.4z" />
<glyph unicode="&#xe60b;" glyph-name="social-instagram" d="M512 419.8c136.8 0 153-0.6 206.8-3 50-2.2 77-10.6 95-17.6 23.8-9.2 41-20.4 58.8-38.2 18-18 29-35 38.4-58.8 7-18 15.4-45.2 17.6-95 2.4-54 3-70.2 3-206.8s-0.6-153-3-206.8c-2.2-50-10.6-77-17.6-95-9.2-23.8-20.4-41-38.2-58.8-18-18-35-29-58.8-38.4-18-7-45.2-15.4-95-17.6-54-2.4-70.2-3-206.8-3s-153 0.6-206.8 3c-50 2.2-77 10.6-95 17.6-23.8 9.2-41 20.4-58.8 38.2-18 18-29 35-38.4 58.8-7 18-15.4 45.2-17.6 95-2.4 54-3 70.2-3 206.8s0.6 153 3 206.8c2.2 50 10.6 77 17.6 95 9.2 23.8 20.4 41 38.2 58.8 18 18 35 29 58.8 38.4 18 7 45.2 15.4 95 17.6 53.8 2.4 70 3 206.8 3zM512 512c-139 0-156.4-0.6-211-3-54.4-2.4-91.8-11.2-124.2-23.8-33.8-13.2-62.4-30.6-90.8-59.2-28.6-28.4-46-57-59.2-90.6-12.6-32.6-21.4-69.8-23.8-124.2-2.4-54.8-3-72.2-3-211.2s0.6-156.4 3-211c2.4-54.4 11.2-91.8 23.8-124.2 13.2-33.8 30.6-62.4 59.2-90.8 28.4-28.4 57-46 90.6-59 32.6-12.6 69.8-21.4 124.2-23.8 54.6-2.4 72-3 211-3s156.4 0.6 211 3c54.4 2.4 91.8 11.2 124.2 23.8 33.6 13 62.2 30.6 90.6 59s46 57 59 90.6c12.6 32.6 21.4 69.8 23.8 124.2 2.4 54.6 3 72 3 211s-0.6 156.4-3 211c-2.4 54.4-11.2 91.8-23.8 124.2-12.6 34-30 62.6-58.6 91-28.4 28.4-57 46-90.6 59-32.6 12.6-69.8 21.4-124.2 23.8-54.8 2.6-72.2 3.2-211.2 3.2v0zM512 263c-145.2 0-263-117.8-263-263s117.8-263 263-263 263 117.8 263 263c0 145.2-117.8 263-263 263zM512-170.6c-94.2 0-170.6 76.4-170.6 170.6s76.4 170.6 170.6 170.6c94.2 0 170.6-76.4 170.6-170.6s-76.4-170.6-170.6-170.6zM846.8 273.4c0-33.91-27.49-61.4-61.4-61.4s-61.4 27.49-61.4 61.4c0 33.91 27.49 61.4 61.4 61.4s61.4-27.49 61.4-61.4z" />
<glyph unicode="&#xe900;" glyph-name="arrow" d="M906.789-82.665c-19.375 17.873-50.374 17.594-69.356-0.838l-276.396-268.847v817.804c0 25.74-21.925 46.545-49.050 46.545-27.075 0-49.050-20.806-49.050-46.545v-817.804l-276.396 268.847c-18.884 18.432-49.933 18.711-69.356 0.838-19.375-17.967-19.767-47.43-0.834-65.815l359.241-349.463c9.614-9.356 22.416-14.057 35.12-14.057 0.245 0 0.441 0.14 0.638 0.14 0.245 0 0.441-0.14 0.638-0.14 0.245 0 0.392 0.14 0.638 0.14s0.441-0.14 0.687-0.14c12.704 0 25.457 4.701 35.071 14.057l359.29 349.463c18.884 18.385 18.541 47.849-0.883 65.815z" />
<glyph unicode="&#xe901;" glyph-name="articles" d="M375.467 512.003h444.010c37.495 0 67.99-30.436 67.99-67.981v-888.039c0-37.334-30.426-67.981-67.959-67.981h-614.954c-37.594 0-67.959 30.577-67.959 68.296v716.768h170.422c38.198 0 68.451 30.655 68.451 68.47v170.467zM273.127-272.916h443.733v68.119h-443.733v-68.119zM273.127-102.249h273.067v68.119h-273.067v-68.119zM273.127 68.415h375.467v68.119h-375.467v-68.119zM136.533 341.333h102.233c37.795 0 68.433 30.512 68.433 68.433v102.233l-170.667-170.667z" />
<glyph unicode="&#xe902;" glyph-name="downloads" d="M562.26-487.614c-27.651-32.504-72.884-32.504-100.536 0l-378.797 445.525c-27.637 32.504-23.593 76.223 19.473 76.223h273.067v409.6c0 42.419 48.146 68.267 91.212 68.267h90.64c43.066 0 91.215-25.848 91.215-68.267v-409.6h273.067c43.066 0 47.108-43.719 19.471-76.223l-378.811-445.525z" />
<glyph unicode="&#xe903;" glyph-name="easy-to-use" d="M102.4 204.8l-34.133-136.533h170.667l34.133 136.533zM341.333 204.8l-34.133-136.533h170.667l34.133 136.533zM580.267 204.8l-34.133-136.533h170.667l34.133 136.533zM819.2 204.8l-34.133-136.533h170.667l34.133 136.533zM102.4 238.933l-55.072 129.513 168.565 26.698 55.072-129.513zM338.392 276.311l-55.072 129.513 168.565 26.698 55.072-129.513zM574.383 313.688l-55.072 129.513 168.565 26.698 55.072-129.513zM810.375 351.066l-55.072 129.513 168.565 26.698 55.072-129.513zM68.267 34.133v-455.111c0-50.244 36.144-91.022 80.679-91.022h726.109c44.535 0 80.679 40.778 80.679 91.022v455.111h-887.467z" />
<glyph unicode="&#xe904;" glyph-name="efficient" d="M67.968 273.062h819.798c37.251 0 67.968-30.563 67.968-68.265v-68.265l68.267-34.133v-204.8l-68.267-34.133v-68.267c0-37.965-30.43-68.267-67.968-68.267h-819.798c-37.251 0-67.968 30.473-67.968 68.063v410.002c0 37.531 30.43 68.063 67.968 68.063zM102.4-170.667h754.048l-3.115 341.333h-750.933v-341.333zM516.797-102.4l268.27 204.8-245.752-102.483-100.554 102.483-268.094-204.8 245.752 102.483z" />
<glyph unicode="&#xe905;" glyph-name="faq" d="M1024 93.565c0 75.772-26.906 138.057-102.4 145.368v-273.067c0-136.533-102.4-204.8-204.8-204.8h-375.467c-22.756-20.419-46.436-48.455-68.267-62.091 25.547-19.919 57.85-31.92 93.069-31.92h360.061c143.872-143.557 297.030-114.651 266.536-92.151-45.622 33.636-69.332 66.785-79.888 97.164 63.943 16.514 111.155 73.326 111.155 141.084v280.411zM819.2 290.497c0 84.605-67.876 153.237-151.597 153.237h-516.035c-83.706 0-151.569-68.631-151.569-153.237v-294.113c0-71.083 47.91-130.657 112.814-147.992-10.74-31.849-34.772-66.618-81.084-101.912-12.128-9.242 4.417-19.546 37.801-19.546 51.752 0 143.941 24.691 232.695 116.2h365.377c83.72 0 151.597 68.603 151.597 153.251v294.113z" />
<glyph unicode="&#xe906;" glyph-name="flexible" d="M1024-221.867l-238.933 153.6v-102.4h-170.667l-109.483 136.45c0 0-57.179-71.794-57.179-71.794s98.396-132.923 98.396-132.923c34.133-34.133 34.133-34.133 68.267-34.133h170.667v-102.4l238.933 153.6zM34.133 238.933c-31.958 0-34.133-51.2-34.133-51.2s2.175-51.2 34.133-51.2h204.8l85.914-96.088c0 0 60.133 69.289 60.133 69.289s-77.781 95.066-77.781 95.066c-34.133 34.133-34.133 34.133-68.267 34.133h-204.8zM1024 221.867l-238.933 153.6v-102.4h-170.667c-34.133 0-34.133 0-68.267-34.133l-307.2-375.467h-170.667c-31.919 0-68.267 0-68.267-51.2s36.347-51.2 68.267-51.2h170.667c34.133 0 34.133 0 68.267 34.133l307.2 375.467h170.667v-102.4l238.933 153.6z" />
<glyph unicode="&#xe907;" glyph-name="inexpensive" d="M648.533-307.2c0-35.926 38.465-68.267 85.401-68.267s85.401 16.337 85.265 68.267v127.693c0.137 19.89-38.328 0-85.265 0s-85.401-29.394-85.401-65.32v-62.373zM204.8-307.2c0-43.787 38.434-68.267 85.333-68.267s85.333 24.479 85.333 68.267v90.959c0 43.787-38.434 79.613-85.333 79.613s-85.333 3.981-85.333-39.807v-130.766zM1024-68.267c0-18.773-15.36-34.133-34.133-34.133h-136.533c-18.773 0-34.133 15.36-34.133 34.133v136.533c0 18.773 15.36 34.133 34.133 34.133h136.533c18.773 0 34.133-15.36 34.133-34.133v-136.533zM3.406 185.685c-7.585 6.334-12.44-138.581 102.172-220.919 114.65-82.337 116.66 168.96 42.439 120.111-74.297-48.811-137.026 94.511-144.612 100.807zM915.63 316.909c15.55 37.547-211.816 33.64-208.024-154.169 3.717-187.885 157.696-118.67 133.461-17.673-24.273 100.883 58.975 134.258 74.562 171.842zM341.333 269.274c0 0 94.246 37.926 170.098 37.926s171.236-37.926 171.236-37.926v-64.474c0 0-95.384 34.133-171.236 34.133s-170.098-34.133-170.098-34.133v64.474zM106.443 34.133c0-188.53 186.785-341.333 417.185-341.333s417.185 152.804 417.185 341.333c0 188.53-186.785 341.333-417.185 341.333s-417.185-152.804-417.185-341.333v0z" />
<glyph unicode="&#xe908;" glyph-name="precise" d="M614.4-68.267c0-56.554-45.846-102.4-102.4-102.4s-102.4 45.846-102.4 102.4c0 56.554 45.846 102.4 102.4 102.4s102.4-45.846 102.4-102.4zM512-443.733c207.365 0 375.467 168.102 375.467 375.467s-168.102 375.467-375.467 375.467c-207.365 0-375.467-168.102-375.467-375.467s168.102-375.467 375.467-375.467zM512-512c-245.067 0-443.733 198.666-443.733 443.733s198.666 443.733 443.733 443.733c245.067 0 443.733-198.666 443.733-443.733s-198.666-443.733-443.733-443.733zM443.733 477.867h136.533v-136.533h-136.533v136.533zM788.606 367.584c12.231 14.576 33.739 16.665 48.539 4.247l51.805-43.47c14.576-12.231 16.665-33.739 4.247-48.539l-65.616-78.198-104.591 87.762 65.616 78.198zM409.6 512h204.8c18.851 0 34.133-15.282 34.133-34.133s-15.282-34.133-34.133-34.133h-204.8c-18.851 0-34.133 15.282-34.133 34.133s15.282 34.133 34.133 34.133zM477.867 204.8h68.267v-443.733h-68.267v443.733z" />
<glyph unicode="&#xe909;" glyph-name="quick-support" d="M409.6 512l-136.533-375.467h136.533l-136.533-363.861h136.533v-284.672l273.067 409.6h-136.533l238.933 375.467h-136.533l102.4 238.933z" />
<glyph unicode="&#xe90a;" glyph-name="quote" d="M482.779 375.467h-251.553l-134.67-217.585c-53.36-84.911-96.556-177.783-96.556-273.308 0-169.822 106.72-260.041 233.767-260.041 132.129 0 233.767 98.179 233.767 233.506 0 122.060-78.769 196.357-170.243 214.931l185.489 302.496zM1024 375.467h-251.553l-134.67-217.585c-53.36-84.911-96.556-177.783-96.556-273.308 0-169.822 106.72-260.041 233.767-260.041 132.129 0 233.767 98.179 233.767 233.506 0 122.060-78.769 196.357-170.243 214.931l185.489 302.496z" />
<glyph unicode="&#xe90b;" glyph-name="search" d="M607.876 121.421c-0.213-119.948-97.661-217.529-217.617-217.757-119.957 0.228-217.418 97.808-217.603 217.757 0.185 120.034 97.646 217.614 217.603 217.842 119.957-0.228 217.404-97.808 217.617-217.842zM995.361-359.61l-274.112 274.259c37.469 59.917 59.253 130.933 59.253 206.772 0 215.694-174.717 390.579-390.244 390.579-215.485 0-390.258-174.885-390.258-390.579 0-215.608 174.774-390.408 390.258-390.408 76.217 0 147.486 21.955 207.635 59.86l273.927-274.117c18.898-18.825 43.512-28.756 68.069-28.756h0.299c21.344 0 43.128 7.94 59.467 24.203 16.566 16.591 24.415 38.489 24.344 60.060 0 24.573-9.812 49.26-28.638 68.127z" />
<glyph unicode="&#xe90c;" glyph-name="tutorials" d="M443.733-477.867c0-18.851 15.133-34.133 34.453-34.133h67.627c19.028 0 34.453 15.151 34.453 34.133v0c0 18.851-15.133 34.133-34.453 34.133h-67.627c-19.028 0-34.453-15.151-34.453-34.133v0zM375.467-273.067c0-18.851 15.464-34.133 34.032-34.133h205.003c18.795 0 34.032 15.151 34.032 34.133v0c0 18.851-15.464 34.133-34.032 34.133h-205.003c-18.795 0-34.032-15.151-34.032-34.133v0zM375.467-375.467c0-18.851 15.464-34.133 34.032-34.133h205.003c18.795 0 34.032 15.151 34.032 34.133v0c0 18.851-15.464 34.133-34.032 34.133h-205.003c-18.795 0-34.032-15.151-34.032-34.133v0zM512 512c-188.465 0-341.333-152.771-341.333-341.333 0-136.094 89.576-253.026 204.8-307.883v-33.396c0-18.882 15.464-34.188 34.032-34.188h205.003c18.795 0 34.032 14.999 34.032 34.188v33.396c115.127 54.857 204.8 171.788 204.8 307.883 0 188.562-152.82 341.333-341.333 341.333z" />
<glyph unicode="&#xe90d;" glyph-name="videos" d="M409.6-273.067v512l273.067-238.933-273.067-273.067zM512 512c-401.591 0-512-110.373-512-512s109.019-512 512-512c402.981 0 512 109.056 512 512s-110.409 512-512 512v0z" />
<glyph unicode="&#xe90e;" glyph-name="workflows" d="M290.133-307.2c-65.98 0-119.467 53.487-119.467 119.467s53.487 119.467 119.467 119.467c65.98 0 119.467-53.487 119.467-119.467s-53.487-119.467-119.467-119.467v0zM580.246-184.925c-0.021 10.3-7.585 19.025-17.782 20.476l-31.501 4.497c-8.746 1.223-15.751 7.896-17.429 16.559-1.927 9.969-4.497 19.73-7.71 29.159-2.798 8.311-0.062 17.512 6.86 22.921l24.952 19.605c8.124 6.383 10.321 17.761 5.119 26.714l-2.756 4.787c-5.16 8.912-16.103 12.642-25.657 8.829l-29.574-11.896c-8.165-3.274-17.533-1.036-23.315 5.575-6.632 7.544-13.74 14.652-21.305 21.284-6.611 5.803-8.829 15.129-5.554 23.315l11.875 29.595c3.855 9.595 0.062 20.559-8.912 25.698l-4.787 2.756c-8.932 5.14-20.289 2.943-26.631-5.181l-19.564-24.932c-5.388-6.881-14.611-9.637-22.921-6.818-9.471 3.192-19.232 5.72-29.201 7.668-8.684 1.699-15.315 8.684-16.559 17.429l-4.497 31.501c-1.451 10.196-10.196 17.782-20.517 17.782h-5.513c-10.3 0-19.046-7.585-20.497-17.782l-4.497-31.501c-1.243-8.746-7.896-15.73-16.559-17.429-9.989-1.948-19.75-4.477-29.222-7.668-8.311-2.819-17.512-0.083-22.921 6.818l-19.564 24.911c-6.362 8.124-17.74 10.321-26.652 5.16l-4.767-2.736c-8.932-5.16-12.725-16.103-8.87-25.678l11.875-29.574c3.274-8.165 1.036-17.512-5.554-23.315-7.585-6.632-14.694-13.761-21.326-21.305-5.803-6.611-15.129-8.849-23.294-5.575l-29.615 11.875c-9.554 3.834-20.497 0.062-25.678-8.87l-2.715-4.767c-5.16-8.932-2.964-20.31 5.14-26.652l24.932-19.585c6.901-5.409 9.658-14.611 6.86-22.921-3.212-9.471-5.782-19.212-7.71-29.159-1.679-8.684-8.663-15.336-17.409-16.559l-31.543-4.518c-10.217-1.451-17.782-10.196-17.782-20.517v-5.533c0-10.3 7.585-19.046 17.782-20.497l31.522-4.518c8.746-1.223 15.751-7.896 17.429-16.559 1.927-9.969 4.497-19.709 7.689-29.18 2.819-8.311 0.083-17.512-6.839-22.901l-24.932-19.585c-8.124-6.362-10.321-17.74-5.16-26.672l2.736-4.767c5.16-8.932 16.103-12.725 25.678-8.87l29.615 11.875c8.165 3.274 17.512 1.057 23.294-5.554 6.653-7.585 13.74-14.673 21.305-21.305 6.611-5.803 8.849-15.129 5.554-23.315l-11.875-29.615c-3.834-9.575-0.062-20.538 8.891-25.678l4.767-2.736c8.932-5.14 20.289-2.964 26.631 5.16l19.585 24.932c5.409 6.901 14.632 9.658 22.921 6.86 9.471-3.212 19.212-5.782 29.18-7.71 8.663-1.679 15.315-8.684 16.559-17.429l4.497-31.543c1.471-10.217 10.217-17.802 20.538-17.782h5.533c10.3 0.021 19.046 7.585 20.497 17.782l4.497 31.543c1.243 8.746 7.896 15.751 16.559 17.429 9.948 1.927 19.709 4.477 29.159 7.689 8.311 2.798 17.512 0.062 22.901-6.839l19.626-24.994c6.362-8.103 17.74-10.279 26.693-5.119l4.767 2.756c8.932 5.181 12.704 16.103 8.849 25.657l-11.896 29.615c-3.274 8.165-1.036 17.512 5.554 23.315 7.585 6.632 14.673 13.72 21.305 21.305 5.803 6.611 15.129 8.829 23.315 5.554l29.615-11.896c9.575-3.855 20.538-0.041 25.698 8.912l2.736 4.767c5.14 8.932 2.943 20.289-5.181 26.652l-24.932 19.564c-6.901 5.409-9.658 14.59-6.839 22.901 3.192 9.471 5.761 19.212 7.689 29.18 1.679 8.684 8.684 15.336 17.429 16.559l31.543 4.518c10.217 1.451 17.802 10.217 17.782 20.559l-0.021 5.533zM733.867 34.133c-65.98 0-119.467 53.487-119.467 119.467s53.487 119.467 119.467 119.467c65.98 0 119.467-53.487 119.467-119.467s-53.487-119.467-119.467-119.467v0zM1023.979 156.408c-0.021 10.3-7.585 19.025-17.782 20.476l-31.501 4.497c-8.746 1.223-15.751 7.896-17.429 16.559-1.927 9.969-4.497 19.73-7.71 29.159-2.798 8.311-0.062 17.512 6.86 22.921l24.952 19.605c8.124 6.383 10.321 17.761 5.119 26.714l-2.756 4.787c-5.16 8.912-16.103 12.642-25.657 8.829l-29.574-11.896c-8.165-3.274-17.533-1.036-23.315 5.575-6.632 7.544-13.74 14.652-21.305 21.284-6.611 5.803-8.829 15.129-5.554 23.315l11.875 29.595c3.855 9.595 0.062 20.559-8.912 25.698l-4.787 2.756c-8.932 5.14-20.289 2.943-26.631-5.181l-19.564-24.932c-5.388-6.881-14.611-9.637-22.921-6.818-9.471 3.192-19.232 5.72-29.201 7.668-8.684 1.699-15.315 8.684-16.559 17.429l-4.497 31.501c-1.451 10.196-10.196 17.782-20.517 17.782h-5.513c-10.3 0-19.046-7.585-20.497-17.782l-4.497-31.501c-1.243-8.746-7.896-15.73-16.559-17.429-9.989-1.948-19.75-4.477-29.222-7.668-8.311-2.819-17.512-0.083-22.921 6.818l-19.564 24.911c-6.362 8.124-17.74 10.321-26.652 5.16l-4.767-2.736c-8.932-5.16-12.725-16.103-8.87-25.678l11.875-29.574c3.274-8.165 1.036-17.512-5.554-23.315-7.585-6.632-14.694-13.761-21.326-21.305-5.803-6.611-15.129-8.849-23.294-5.575l-29.615 11.875c-9.554 3.834-20.497 0.062-25.678-8.87l-2.715-4.767c-5.16-8.932-2.964-20.31 5.14-26.652l24.932-19.585c6.901-5.409 9.658-14.611 6.86-22.921-3.212-9.471-5.782-19.212-7.71-29.159-1.679-8.684-8.663-15.336-17.409-16.559l-31.543-4.518c-10.217-1.451-17.782-10.196-17.782-20.517v-5.533c0-10.3 7.585-19.046 17.782-20.497l31.522-4.518c8.746-1.223 15.751-7.896 17.429-16.559 1.927-9.969 4.497-19.709 7.689-29.18 2.819-8.311 0.083-17.512-6.839-22.901l-24.932-19.585c-8.124-6.362-10.321-17.74-5.16-26.672l2.736-4.767c5.16-8.932 16.103-12.725 25.678-8.87l29.615 11.875c8.165 3.274 17.512 1.057 23.294-5.554 6.653-7.585 13.74-14.673 21.305-21.305 6.611-5.803 8.849-15.129 5.554-23.315l-11.875-29.615c-3.834-9.575-0.062-20.538 8.891-25.678l4.767-2.736c8.932-5.14 20.289-2.964 26.631 5.16l19.585 24.932c5.409 6.901 14.632 9.658 22.921 6.86 9.471-3.212 19.212-5.782 29.18-7.71 8.663-1.679 15.315-8.684 16.559-17.429l4.497-31.543c1.471-10.217 10.217-17.802 20.538-17.782h5.533c10.3 0.021 19.046 7.585 20.497 17.782l4.497 31.543c1.243 8.746 7.896 15.751 16.559 17.429 9.948 1.927 19.709 4.477 29.159 7.689 8.311 2.798 17.512 0.062 22.901-6.839l19.626-24.994c6.362-8.103 17.74-10.279 26.693-5.119l4.767 2.756c8.932 5.181 12.704 16.103 8.849 25.657l-11.896 29.615c-3.274 8.165-1.036 17.512 5.554 23.315 7.585 6.632 14.673 13.72 21.305 21.305 5.803 6.611 15.129 8.829 23.315 5.554l29.615-11.896c9.575-3.855 20.538-0.041 25.698 8.912l2.736 4.767c5.14 8.932 2.943 20.289-5.181 26.652l-24.932 19.564c-6.901 5.409-9.658 14.59-6.839 22.901 3.192 9.471 5.761 19.212 7.689 29.18 1.679 8.684 8.684 15.336 17.429 16.559l31.543 4.518c10.217 1.451 17.802 10.217 17.782 20.559l-0.021 5.533z" />
</font>
</defs>
</svg>
